<?xml version="1.0" standalone="no"?>
<!DOCTYPE svg PUBLIC "-//W3C//DTD SVG 20010904//EN"
 "http://www.w3.org/TR/2001/REC-SVG-20010904/DTD/svg10.dtd">
<svg version="1.0" xmlns="http://www.w3.org/2000/svg"
 width="80.000000pt" height="80.000000pt" viewBox="0 0 80.000000 80.000000"
 preserveAspectRatio="xMidYMid meet">
<metadata>
Created by potrace 1.14, written by Peter Selinger 2001-2017
</metadata>
<g transform="translate(0.000000,80.000000) scale(0.100000,-0.100000)"
fill="#000000" stroke="none">
<path d="M250 790 c0 -5 -9 -10 -20 -10 -11 0 -20 -4 -20 -10 0 -5 -7 -10 -15
-10 -8 0 -15 -4 -15 -10 0 -5 -7 -10 -15 -10 -19 0 -85 -64 -85 -82 0 -8 -9
-20 -20 -28 -11 -8 -20 -25 -20 -37 0 -13 -4 -23 -10 -23 -5 0 -10 -18 -10
-40 0 -22 -4 -40 -10 -40 -6 0 -10 -30 -10 -70 0 -40 4 -70 10 -70 6 0 10 -22
10 -50 0 -27 5 -50 10 -50 6 0 10 -9 10 -20 0 -11 5 -20 10 -20 6 0 10 -7 10
-15 0 -8 5 -15 10 -15 6 0 10 -7 10 -15 0 -20 65 -85 85 -85 8 0 15 -4 15 -10
0 -5 7 -10 15 -10 8 0 15 -4 15 -10 0 -5 9 -10 20 -10 11 0 20 -4 20 -10 0 -5
18 -10 40 -10 22 0 40 -4 40 -10 0 -6 27 -10 60 -10 33 0 60 4 60 10 0 6 14
10 30 10 17 0 30 5 30 10 0 6 12 10 26 10 28 0 64 33 64 57 0 17 44 63 60 63
14 0 40 25 40 39 0 6 5 11 10 11 6 0 10 9 10 20 0 11 5 20 10 20 6 0 10 14 10
30 0 17 5 30 10 30 15 0 12 77 -2 84 -10 5 -10 7 0 12 14 7 17 104 2 104 -5 0
-10 14 -10 30 0 17 -4 30 -10 30 -5 0 -10 10 -10 23 0 12 -9 29 -20 37 -11 8
-20 20 -20 28 0 15 -65 82 -80 82 -5 0 -10 5 -10 10 0 6 -9 10 -20 10 -11 0
-20 5 -20 10 0 6 -9 10 -20 10 -11 0 -20 5 -20 10 0 6 -50 10 -130 10 -80 0
-130 -4 -130 -10z m160 -120 c0 -5 -4 -10 -10 -10 -5 0 -10 -16 -10 -35 0 -19
-4 -35 -10 -35 -5 0 -10 -13 -10 -30 0 -16 -4 -30 -10 -30 -5 0 -10 -13 -10
-30 l0 -30 70 0 c63 0 70 -2 70 -20 0 -11 -4 -20 -10 -20 -5 0 -10 -8 -10 -18
0 -10 -9 -24 -20 -32 -11 -8 -20 -21 -20 -30 0 -9 -9 -22 -20 -30 -11 -8 -20
-21 -20 -30 0 -9 -9 -22 -20 -30 -11 -8 -20 -22 -20 -32 0 -10 -4 -18 -10 -18
-5 0 -10 -7 -10 -15 0 -8 -4 -15 -10 -15 -5 0 -10 11 -10 25 0 14 5 25 10 25
6 0 10 9 10 20 0 11 5 20 10 20 6 0 10 14 10 30 0 17 5 30 10 30 6 0 10 18 10
40 l0 40 -60 0 c-53 0 -60 2 -60 20 0 11 5 20 10 20 6 0 10 8 10 18 0 10 9 24
20 32 11 8 20 21 20 30 0 9 9 22 20 30 11 8 20 25 20 37 0 13 5 23 10 23 6 0
10 7 10 15 0 17 20 44 33 45 4 0 7 -4 7 -10z m-250 -86 c0 -7 -27 -34 -34 -34
-3 0 -6 9 -6 20 0 13 7 20 20 20 11 0 20 -3 20 -6z m580 -144 c0 -5 -4 -10
-10 -10 -5 0 -10 5 -10 10 0 6 5 10 10 10 6 0 10 -4 10 -10z"/>
<path d="M633 125 c-29 -32 -6 -85 37 -85 31 0 50 24 50 64 0 35 -1 36 -37 36
-21 -1 -44 -7 -50 -15z"/>
</g>
</svg>
